<svg xmlns="http://www.w3.org/2000/svg" xmlns:xlink="http://www.w3.org/1999/xlink" width="512" zoomAndPan="magnify" viewBox="0 0 384 383.999986" height="512" preserveAspectRatio="xMidYMid meet" version="1.0"><defs><clipPath id="3354abb60a"><path d="M 5.335938 19.929688 L 378.835938 19.929688 L 378.835938 364.179688 L 5.335938 364.179688 Z M 5.335938 19.929688 " clip-rule="nonzero"/></clipPath></defs><path fill="#ffd42a" d="M 19.871094 321.722656 C 17.472656 326.339844 14.648438 330.65625 14.648438 335.726562 L 14.671875 337.84375 C 14.671875 348.78125 23.234375 355.394531 33.082031 355.394531 L 351.179688 355.394531 C 361.027344 355.394531 369.507812 347.195312 369.507812 336.257812 L 369.402344 334.132812 C 369.402344 329.0625 366.910156 324.664062 364.179688 320.128906 L 206.644531 37.566406 C 199.683594 29.835938 188.398438 29.835938 181.4375 37.570312 L 19.875 321.730469 Z M 19.871094 321.722656 " fill-opacity="1" fill-rule="nonzero"/><g clip-path="url(#3354abb60a)"><path stroke-linecap="butt" transform="matrix(2.621995, 0, 0, 2.621654, -12.833819, 4.293578)" fill="none" stroke-linejoin="miter" d="M 12.473292 121.079721 C 11.558555 122.840894 10.481429 124.487339 10.481429 126.421352 L 10.490368 127.228929 C 10.490368 131.400914 13.75601 133.923475 17.511798 133.923475 L 138.830727 133.923475 C 142.586514 133.923475 145.820871 130.795976 145.820871 126.623991 L 145.780646 125.813434 C 145.780646 123.879421 144.830154 122.201687 143.788783 120.471803 L 83.706616 12.691543 C 81.051792 9.742843 76.747758 9.742843 74.092933 12.693033 L 12.474782 121.082701 Z M 12.473292 121.079721 " stroke="#000000" stroke-width="6.831" stroke-opacity="1" stroke-miterlimit="4"/></g><path fill="#000000" d="M 220.933594 293.496094 C 220.9375 294.320312 220.902344 295.140625 220.824219 295.960938 C 220.746094 296.785156 220.628906 297.597656 220.472656 298.410156 C 220.316406 299.21875 220.121094 300.015625 219.882812 300.808594 C 219.648438 301.597656 219.371094 302.375 219.058594 303.136719 C 218.746094 303.898438 218.398438 304.644531 218.011719 305.375 C 217.625 306.101562 217.203125 306.8125 216.746094 307.496094 C 216.292969 308.183594 215.804688 308.847656 215.28125 309.488281 C 214.761719 310.125 214.210938 310.738281 213.628906 311.320312 C 213.046875 311.90625 212.4375 312.460938 211.800781 312.984375 C 211.164062 313.507812 210.503906 314 209.820312 314.460938 C 209.132812 314.921875 208.429688 315.34375 207.703125 315.734375 C 206.976562 316.125 206.230469 316.476562 205.46875 316.792969 C 204.707031 317.109375 203.933594 317.390625 203.144531 317.628906 C 202.355469 317.867188 201.554688 318.070312 200.746094 318.230469 C 199.9375 318.394531 199.125 318.515625 198.304688 318.59375 C 197.480469 318.675781 196.660156 318.714844 195.835938 318.714844 C 195.011719 318.714844 194.1875 318.675781 193.367188 318.59375 C 192.546875 318.515625 191.730469 318.390625 190.921875 318.230469 C 190.113281 318.070312 189.316406 317.867188 188.527344 317.628906 C 187.738281 317.390625 186.960938 317.109375 186.199219 316.792969 C 185.4375 316.476562 184.695312 316.125 183.96875 315.734375 C 183.242188 315.34375 182.535156 314.921875 181.851562 314.460938 C 181.167969 314 180.503906 313.507812 179.871094 312.984375 C 179.234375 312.460938 178.625 311.90625 178.042969 311.320312 C 177.460938 310.738281 176.910156 310.125 176.386719 309.488281 C 175.867188 308.847656 175.378906 308.183594 174.921875 307.496094 C 174.464844 306.8125 174.042969 306.101562 173.660156 305.375 C 173.273438 304.644531 172.921875 303.898438 172.609375 303.136719 C 172.296875 302.375 172.023438 301.597656 171.785156 300.808594 C 171.550781 300.015625 171.355469 299.21875 171.195312 298.410156 C 171.039062 297.597656 170.921875 296.785156 170.84375 295.960938 C 170.769531 295.140625 170.730469 294.320312 170.734375 293.496094 C 170.730469 292.671875 170.769531 291.847656 170.84375 291.027344 C 170.921875 290.207031 171.039062 289.390625 171.195312 288.582031 C 171.355469 287.769531 171.550781 286.972656 171.785156 286.179688 C 172.023438 285.390625 172.296875 284.613281 172.609375 283.851562 C 172.921875 283.089844 173.273438 282.34375 173.660156 281.613281 C 174.042969 280.886719 174.464844 280.179688 174.921875 279.492188 C 175.378906 278.804688 175.867188 278.140625 176.386719 277.503906 C 176.910156 276.863281 177.460938 276.253906 178.042969 275.667969 C 178.625 275.082031 179.234375 274.527344 179.871094 274.003906 C 180.503906 273.480469 181.167969 272.988281 181.851562 272.527344 C 182.535156 272.070312 183.242188 271.644531 183.96875 271.253906 C 184.695312 270.863281 185.4375 270.511719 186.199219 270.195312 C 186.960938 269.878906 187.738281 269.601562 188.527344 269.359375 C 189.316406 269.121094 190.113281 268.917969 190.921875 268.757812 C 191.730469 268.597656 192.546875 268.476562 193.367188 268.394531 C 194.1875 268.3125 195.011719 268.273438 195.835938 268.273438 C 196.660156 268.273438 197.480469 268.3125 198.304688 268.394531 C 199.125 268.476562 199.9375 268.597656 200.746094 268.757812 C 201.554688 268.917969 202.355469 269.121094 203.144531 269.359375 C 203.933594 269.601562 204.707031 269.878906 205.46875 270.195312 C 206.230469 270.511719 206.976562 270.863281 207.703125 271.253906 C 208.429688 271.644531 209.132812 272.070312 209.820312 272.527344 C 210.503906 272.988281 211.164062 273.480469 211.800781 274.003906 C 212.4375 274.527344 213.046875 275.082031 213.628906 275.667969 C 214.210938 276.253906 214.761719 276.863281 215.28125 277.503906 C 215.804688 278.140625 216.292969 278.804688 216.746094 279.492188 C 217.203125 280.179688 217.625 280.886719 218.011719 281.613281 C 218.398438 282.34375 218.746094 283.089844 219.058594 283.851562 C 219.371094 284.613281 219.648438 285.390625 219.882812 286.179688 C 220.121094 286.972656 220.316406 287.769531 220.472656 288.582031 C 220.628906 289.390625 220.746094 290.207031 220.824219 291.027344 C 220.902344 291.847656 220.9375 292.671875 220.933594 293.496094 Z M 220.933594 293.496094 " fill-opacity="1" fill-rule="nonzero"/><path fill="#000000" d="M 195.671875 119.132812 C 205.53125 119.132812 220.835938 126.988281 220.835938 136.746094 L 213.472656 238.15625 C 213.472656 247.914062 205.53125 255.769531 195.671875 255.769531 C 185.8125 255.769531 177.871094 247.914062 177.871094 238.15625 L 169.28125 136.746094 C 169.28125 126.988281 185.8125 119.132812 195.671875 119.132812 Z M 195.671875 119.132812 " fill-opacity="1" fill-rule="nonzero"/></svg>